<svg width="100px" height="100px" viewBox="0 0 98 35" xmlns="http://www.w3.org/2000/svg" xmlns:xlink="http://www.w3.org/1999/xlink" class="canvasstyles__CommonWrapper-foundation-kit__sc-1e7xibp-0 hBRmxK"><path d="M6.67136 0L5.00248 4.57877H28.1294L29.7983 0H6.67136ZM4.16752 6.86711L2.49864 11.4448H25.6256L27.2945 6.86711H4.16752ZM1.66888 13.7342L0 18.312H23.127L24.7948 13.7342H1.66888Z" fill="#fff"></path><path d="M49.1664 20.0567V20.1534C50.2233 20.5419 51.2329 21.2214 51.7619 21.6577C53.3961 23.0166 54.1176 24.8118 54.1176 27.1411C54.1176 30.9757 52.0984 33.7413 48.7815 34.615C47.7719 34.9059 46.715 35.0035 44.7431 35.0035H34.6978V6.95508H43.5905C45.4172 6.95508 46.6666 7.05169 47.7719 7.34258C50.9931 8.2163 53.108 10.4489 53.108 13.9905C53.108 15.8834 52.4349 17.4855 51.3296 18.5524C50.849 19.0376 50.176 19.6204 49.1664 20.0567ZM40.2736 23.0166V30.3928H44.1195C45.2721 30.3928 46.3301 30.2962 47.0999 29.568C47.8687 28.8397 48.2052 27.9182 48.2052 26.7047C48.2052 25.7832 47.9643 24.9095 47.4837 24.2789C46.6666 23.2597 45.657 23.0166 43.9271 23.0166H40.2736ZM40.2252 18.1638H43.3497C44.3109 18.1638 44.7915 18.1638 45.2721 18.0184C46.5709 17.6298 47.388 16.4663 47.388 14.8643C47.388 12.9724 46.5225 12.1465 45.2721 11.759C44.7431 11.6135 44.2152 11.5647 43.1572 11.5647H40.2252V18.1638ZM62.4814 35.0035V11.6613H54.4541V6.95508H76.7586L75.1727 11.6613H68.0572V35.0035H62.4814ZM78.4886 35.0035V6.95508H96.5633L94.9774 11.6613H84.0171V17.873H88.4877C92.0927 17.873 93.9678 18.7467 95.2656 19.8625C96.2752 20.7362 98.0051 22.6769 98.0051 26.5115C98.0051 30.2962 96.2268 32.3824 94.7366 33.4504C93.0066 34.6628 91.1799 35.0035 87.4781 35.0035H78.4886ZM84.0171 30.2962H88.1995C89.7854 30.2962 90.7466 29.9077 91.4197 29.034C91.7562 28.5976 92.2368 27.8205 92.2368 26.365C92.2368 24.9095 91.7562 23.8903 90.795 23.162C90.2187 22.7257 89.4489 22.4837 88.1511 22.4837H84.0171V30.2962Z" fill="#fff"></path></svg>