<?xml version="1.0" encoding="utf-8"?>
<!-- Generator: Adobe Illustrator 21.0.2, SVG Export Plug-In . SVG Version: 6.00 Build 0)  -->
<svg version="1.1" id="Layer_1" xmlns="http://www.w3.org/2000/svg" xmlns:xlink="http://www.w3.org/1999/xlink" x="0px" y="0px"
	 viewBox="0 0 848 725" style="enable-background:new 0 0 848 725;" xml:space="preserve">
<style type="text/css">
	.st0{fill:#170030;}
	.st1{fill:#FFFFFF;}
	.st2{fill:#009C32;}
</style>
<g>
	<path class="st0" d="M302.1,275.5c-1.8,0-2.9,1.1-2.9,3.1v15.7h-24.1v-15.7c0-2-1.1-3.1-2.9-3.1c-1.8,0-2.9,1.1-2.9,3.1v37.9
		c0,2,1.1,3.1,2.9,3.1c1.8,0,2.9-1.1,2.9-3.1v-16.8h24.1v16.8c0,2,1.1,3.1,2.9,3.1c1.8,0,2.9-1.1,2.9-3.1v-37.9
		C304.9,276.6,303.9,275.5,302.1,275.5 M331.8,297l16.7-16.8c0.8-0.8,1.1-1.4,1.1-2.3c0-1.3-0.9-2.4-2.5-2.4c-0.8,0-1.5,0.3-2.2,1
		l-16.4,16.4c-0.9,0.9-1.8,1.4-3.1,1.4h-3.4v-15.7c0-2-1.1-3.1-2.9-3.1c-1.8,0-2.9,1.1-2.9,3.1v37.9c0,2,1.1,3.1,2.9,3.1
		c1.8,0,2.9-1.1,2.9-3.1v-16.8h3c1.3,0,2.2,0.5,3.1,1.4l17.4,17.4c0.8,0.8,1.4,1,2.3,1c1.6,0,2.6-1.2,2.6-2.6c0-0.9-0.4-1.6-1.2-2.5
		L331.8,297z M367.9,223.3c-2.6,1.4-6.2,2.3-9.6,2.3c-5.6,0-9.1-2.4-9.1-6.7c0-3.8,3-6.8,9.1-6.8c3.2,0,6.1,0.5,9.6,1.5V223.3z
		 M359.1,188.1c-4.9,0-9.3,1.2-12.1,2.4c-2.4,1-3.4,2.3-3.4,4.2c0,2.2,1.7,3.8,3.7,3.8c1,0,2.1-0.4,3.2-0.8c1.8-0.7,4.9-1.5,7.9-1.5
		c6.7,0,9.5,2.5,9.5,7.7v3.5c-3.9-1-7-1.5-10.7-1.5c-11,0-16.4,6.3-16.4,13.2c0,8,6,14,16.7,14c8.3,0,14.6-2.8,17.2-4.5
		c1.2-0.8,1.6-1.6,1.6-3.3V204C376.4,193.1,370.1,188.1,359.1,188.1 M464.6,216.4c-2,0-3.1,1.2-3.8,2.5c-1.5,3.3-4.7,5.6-9.1,5.6
		c-6.2,0-9.9-3.7-10.4-9.3c-0.3-3-0.3-6.4,0-9.3c0.5-5.5,4.2-9.3,10.4-9.3c4.4,0,7.6,2.3,9.1,5.6c0.8,1.3,1.9,2.5,3.8,2.5
		c2.5,0,4.3-1.6,4.3-4c0-1.3-0.5-2.6-1.3-4c-2.6-4.7-8.1-8.6-16.1-8.6c-10.8,0-18,6.8-18.9,16.5c-0.3,3.2-0.3,8.6,0,11.8
		c0.9,9.7,8.1,16.5,18.9,16.5c8,0,13.5-3.8,16.1-8.6c0.8-1.4,1.2-2.7,1.2-4C468.8,218,467.1,216.3,464.6,216.4 M268.2,225.1
		L253.1,210l14.3-14.3c1.1-1.1,1.7-2.2,1.7-3.5c0-2.1-1.5-3.7-3.7-3.7c-1.3,0-2.2,0.5-3.4,1.7l-14.5,14.5c-0.8,0.8-1.6,1.2-2.8,1.2
		h-3v-12.9c0-2.9-1.7-4.6-4.4-4.6c-2.7,0-4.4,1.7-4.4,4.6v34.8c0,2.9,1.7,4.6,4.4,4.6c2.7,0,4.4-1.7,4.4-4.6v-13.9h2.5
		c1.1,0,2,0.5,2.8,1.2l15.5,15.5c1.3,1.3,2.3,1.8,3.6,1.8c2.3,0,3.9-1.6,3.9-3.9C269.9,227.4,269.3,226.2,268.2,225.1 M415.4,215.2
		c-0.5,5.5-4,9.3-10.3,9.3c-3.3,0-7.4-1-9.4-2.4V199c2-1.4,6.1-2.5,9.4-2.5c6.3,0,9.8,3.8,10.3,9.3
		C415.6,208.7,415.7,212.2,415.4,215.2 M405.4,188.1c-7.6,0-13.8,2.7-16.2,4.2c-2,1.2-2.2,2.1-2.2,5.5v44.6c0,2.9,1.7,4.6,4.4,4.6
		c2.7,0,4.4-1.7,4.4-4.6v-11.6c2.6,1.3,6.6,2.2,10.4,2.2c10.1,0,17-6.7,18-16.4c0.3-3.3,0.3-8.7,0-12
		C423.2,194.8,416.2,188.1,405.4,188.1 M253,311.6c-3.2,1.7-7.6,3-11.6,3c-7.2,0-11.3-3.1-11.3-8.3c0-4.7,3.6-8.3,11.3-8.3
		c3.8,0,7,0.6,11.6,1.9V311.6z M242.7,275.1c-5,0-9.9,1.4-12.6,2.6c-1.8,0.8-2.6,1.6-2.6,3c0,1.5,1.2,2.6,2.6,2.6
		c0.7,0,1.5-0.3,2.3-0.7c2-0.9,5.9-2,9.7-2c7.5,0,10.9,3,10.9,9.8v4c-4.7-1.4-8.1-1.8-12.1-1.8c-10.9,0-16.5,6.3-16.5,13.4
		c0,8.3,6.3,13.8,16.2,13.8c8.2,0,14.5-2.9,16.8-4.6c0.9-0.7,1.2-1.2,1.2-2.5v-22.5C258.7,280,252.7,275.1,242.7,275.1 M200.6,313.5
		h-16.3v-23.2h16.3c8.6,0,12.1,4.2,12.1,11.4C212.6,309.2,209.1,313.5,200.6,313.5 M201.3,284.8h-17.1v-17.9h28.5
		c1.9,0,3.2-1.1,3.2-2.9c0-1.7-1.3-2.8-3.2-2.8h-29.2c-3.3,0-5.1,1.8-5.1,5.1V314c0,3.3,1.9,5.1,5.1,5.1h17.8
		c10.9,0,17.3-6.4,17.3-17.5C218.6,290.9,212.2,284.8,201.3,284.8 M301.7,204.7H316c6.8,0,9.8,3.5,9.8,9.4c0,6.1-3,9.7-9.8,9.7
		h-14.3V204.7z M299.5,232.2H317c11.3,0,18-6.6,18-18.3c0-11-6.7-17.2-18-17.2h-15.3v-14.1h25.6c2.8,0,4.6-1.7,4.6-4.3
		c0-2.5-1.8-4.2-4.6-4.2h-27.8c-4.4,0-6.8,2.4-6.8,6.8v44.4C292.7,229.8,295.1,232.2,299.5,232.2 M190.9,206l8-22.8
		c0.3-0.8,0.6-1.1,1.2-1.1c0.6,0,0.9,0.3,1.1,1.1l8,22.8H190.9z M226.2,228.4c0-0.8-0.1-1.6-0.6-2.8l-16.2-44.1
		c-1.9-5.4-4.8-7.7-9.3-7.7c-4.5,0-7.4,2.3-9.3,7.7l-16.3,44.1c-0.5,1.4-0.6,2.2-0.6,2.8c0,2.3,1.8,4.2,4.4,4.2c2.1,0,3.6-1,4.5-3.6
		l5.3-15h24l5.3,15c0.8,2.5,2.4,3.5,4.4,3.5C224.4,232.6,226.2,230.7,226.2,228.4"/>
	<path class="st2" d="M671.1,459.4c-7.1-18-24.8-27.9-43.9-24.4l-39.2,7c-6.5,1.2-10.8,7.4-9.7,13.9c1.2,6.5,7.4,10.8,13.9,9.7
		l39.2-7c9.3-1.7,15.1,3.9,17.4,9.7c2.3,5.8,1.9,13.8-6.1,18.9l-57.6,37.3c-5.3,3.5-11.9,3.7-17.4,0.7c-5.6-3-8.9-8.6-8.9-15V389.2
		c0-6.6-5.3-12-12-12c-6.6,0-12,5.4-12,12v120.8c0,15.3,8,28.7,21.4,36c6.2,3.4,12.9,5.1,19.6,5.1c7.7,0,15.4-2.2,22.3-6.7
		l57.6-37.3C672,496.6,678.2,477.4,671.1,459.4 M468.6,434.9l-39.2,7c-6.5,1.2-10.8,7.4-9.7,13.9c1.2,6.5,7.4,10.8,13.9,9.7l39.2-7
		c9.3-1.7,15.1,3.9,17.4,9.7c2.3,5.8,1.9,13.8-6.1,18.9l-57.6,37.3c-5.3,3.5-11.9,3.7-17.4,0.7c-5.6-3-8.9-8.6-8.9-15v-91.8
		c0-15.3-8-28.7-21.4-36c-13.4-7.3-29.1-6.7-41.9,1.6l-144.7,93.8c-16.3,10.6-22.4,29.8-15.3,47.8c7.1,18,24.8,27.9,43.9,24.4
		l126.4-22.7c6.5-1.2,10.8-7.4,9.7-13.9c-1.2-6.5-7.4-10.8-13.9-9.7l-126.4,22.7c-9.3,1.7-15.1-3.9-17.4-9.7
		c-2.3-5.8-1.9-13.8,6.1-18.9L350,403.9c5.3-3.5,11.9-3.7,17.4-0.7c5.6,3,8.9,8.6,8.9,15v91.8c0,15.3,8,28.7,21.4,36
		c6.2,3.4,12.9,5.1,19.6,5.1c7.7,0,15.4-2.2,22.2-6.7l57.6-37.3c16.3-10.6,22.4-29.8,15.3-47.8C505.4,441.3,487.7,431.5,468.6,434.9
		"/>
</g>
</svg>
