<svg width="254" height="92" viewBox="0 0 254 92" fill="none" xmlns="http://www.w3.org/2000/svg">
<path d="M4 90C4 91.1046 3.10457 92 2 92C0.89543 92 0 91.1046 0 90C0 88.8954 0.89543 88 2 88C3.10457 88 4 88.8954 4 90Z" fill="#4363F9"/>
<path d="M29 90C29 91.1046 28.1046 92 27 92C25.8954 92 25 91.1046 25 90C25 88.8954 25.8954 88 27 88C28.1046 88 29 88.8954 29 90Z" fill="#4363F9"/>
<path d="M54 90C54 91.1046 53.1046 92 52 92C50.8954 92 50 91.1046 50 90C50 88.8954 50.8954 88 52 88C53.1046 88 54 88.8954 54 90Z" fill="#4363F9"/>
<path d="M79 90C79 91.1046 78.1046 92 77 92C75.8954 92 75 91.1046 75 90C75 88.8954 75.8954 88 77 88C78.1046 88 79 88.8954 79 90Z" fill="#4363F9"/>
<path d="M104 90C104 91.1046 103.105 92 102 92C100.895 92 100 91.1046 100 90C100 88.8954 100.895 88 102 88C103.105 88 104 88.8954 104 90Z" fill="#4363F9"/>
<path d="M129 90C129 91.1046 128.105 92 127 92C125.895 92 125 91.1046 125 90C125 88.8954 125.895 88 127 88C128.105 88 129 88.8954 129 90Z" fill="#4363F9"/>
<path d="M154 90C154 91.1046 153.105 92 152 92C150.895 92 150 91.1046 150 90C150 88.8954 150.895 88 152 88C153.105 88 154 88.8954 154 90Z" fill="#4363F9"/>
<path d="M179 90C179 91.1046 178.105 92 177 92C175.895 92 175 91.1046 175 90C175 88.8954 175.895 88 177 88C178.105 88 179 88.8954 179 90Z" fill="#4363F9"/>
<path d="M204 90C204 91.1046 203.105 92 202 92C200.895 92 200 91.1046 200 90C200 88.8954 200.895 88 202 88C203.105 88 204 88.8954 204 90Z" fill="#4363F9"/>
<path d="M229 90C229 91.1046 228.105 92 227 92C225.895 92 225 91.1046 225 90C225 88.8954 225.895 88 227 88C228.105 88 229 88.8954 229 90Z" fill="#4363F9"/>
<path d="M254 90C254 91.1046 253.105 92 252 92C250.895 92 250 91.1046 250 90C250 88.8954 250.895 88 252 88C253.105 88 254 88.8954 254 90Z" fill="#4363F9"/>
<path d="M4 65C4 66.1046 3.10457 67 2 67C0.89543 67 0 66.1046 0 65C0 63.8954 0.89543 63 2 63C3.10457 63 4 63.8954 4 65Z" fill="#4363F9"/>
<path d="M29 65C29 66.1046 28.1046 67 27 67C25.8954 67 25 66.1046 25 65C25 63.8954 25.8954 63 27 63C28.1046 63 29 63.8954 29 65Z" fill="#4363F9"/>
<path d="M54 65C54 66.1046 53.1046 67 52 67C50.8954 67 50 66.1046 50 65C50 63.8954 50.8954 63 52 63C53.1046 63 54 63.8954 54 65Z" fill="#4363F9"/>
<path d="M79 65C79 66.1046 78.1046 67 77 67C75.8954 67 75 66.1046 75 65C75 63.8954 75.8954 63 77 63C78.1046 63 79 63.8954 79 65Z" fill="#4363F9"/>
<path d="M104 65C104 66.1046 103.105 67 102 67C100.895 67 100 66.1046 100 65C100 63.8954 100.895 63 102 63C103.105 63 104 63.8954 104 65Z" fill="#4363F9"/>
<path d="M129 65C129 66.1046 128.105 67 127 67C125.895 67 125 66.1046 125 65C125 63.8954 125.895 63 127 63C128.105 63 129 63.8954 129 65Z" fill="#4363F9"/>
<path d="M154 65C154 66.1046 153.105 67 152 67C150.895 67 150 66.1046 150 65C150 63.8954 150.895 63 152 63C153.105 63 154 63.8954 154 65Z" fill="#4363F9"/>
<path d="M179 65C179 66.1046 178.105 67 177 67C175.895 67 175 66.1046 175 65C175 63.8954 175.895 63 177 63C178.105 63 179 63.8954 179 65Z" fill="#4363F9"/>
<path d="M204 65C204 66.1046 203.105 67 202 67C200.895 67 200 66.1046 200 65C200 63.8954 200.895 63 202 63C203.105 63 204 63.8954 204 65Z" fill="#4363F9"/>
<path d="M229 65C229 66.1046 228.105 67 227 67C225.895 67 225 66.1046 225 65C225 63.8954 225.895 63 227 63C228.105 63 229 63.8954 229 65Z" fill="#4363F9"/>
<path d="M254 65C254 66.1046 253.105 67 252 67C250.895 67 250 66.1046 250 65C250 63.8954 250.895 63 252 63C253.105 63 254 63.8954 254 65Z" fill="#4363F9"/>
<path d="M4 40C4 41.1046 3.10457 42 2 42C0.89543 42 0 41.1046 0 40C0 38.8954 0.89543 38 2 38C3.10457 38 4 38.8954 4 40Z" fill="#4363F9"/>
<path d="M29 40C29 41.1046 28.1046 42 27 42C25.8954 42 25 41.1046 25 40C25 38.8954 25.8954 38 27 38C28.1046 38 29 38.8954 29 40Z" fill="#4363F9"/>
<path d="M54 40C54 41.1046 53.1046 42 52 42C50.8954 42 50 41.1046 50 40C50 38.8954 50.8954 38 52 38C53.1046 38 54 38.8954 54 40Z" fill="#4363F9"/>
<path d="M79 40C79 41.1046 78.1046 42 77 42C75.8954 42 75 41.1046 75 40C75 38.8954 75.8954 38 77 38C78.1046 38 79 38.8954 79 40Z" fill="#4363F9"/>
<path d="M104 40C104 41.1046 103.105 42 102 42C100.895 42 100 41.1046 100 40C100 38.8954 100.895 38 102 38C103.105 38 104 38.8954 104 40Z" fill="#4363F9"/>
<path d="M129 40C129 41.1046 128.105 42 127 42C125.895 42 125 41.1046 125 40C125 38.8954 125.895 38 127 38C128.105 38 129 38.8954 129 40Z" fill="#4363F9"/>
<path d="M154 40C154 41.1046 153.105 42 152 42C150.895 42 150 41.1046 150 40C150 38.8954 150.895 38 152 38C153.105 38 154 38.8954 154 40Z" fill="#4363F9"/>
<path d="M179 40C179 41.1046 178.105 42 177 42C175.895 42 175 41.1046 175 40C175 38.8954 175.895 38 177 38C178.105 38 179 38.8954 179 40Z" fill="#4363F9"/>
<path d="M204 40C204 41.1046 203.105 42 202 42C200.895 42 200 41.1046 200 40C200 38.8954 200.895 38 202 38C203.105 38 204 38.8954 204 40Z" fill="#4363F9"/>
<path d="M229 40C229 41.1046 228.105 42 227 42C225.895 42 225 41.1046 225 40C225 38.8954 225.895 38 227 38C228.105 38 229 38.8954 229 40Z" fill="#4363F9"/>
<path d="M254 40C254 41.1046 253.105 42 252 42C250.895 42 250 41.1046 250 40C250 38.8954 250.895 38 252 38C253.105 38 254 38.8954 254 40Z" fill="#4363F9"/>
<path d="M4 15C4 16.1046 3.10457 17 2 17C0.89543 17 0 16.1046 0 15C0 13.8954 0.89543 13 2 13C3.10457 13 4 13.8954 4 15Z" fill="#4363F9"/>
<path d="M29 15C29 16.1046 28.1046 17 27 17C25.8954 17 25 16.1046 25 15C25 13.8954 25.8954 13 27 13C28.1046 13 29 13.8954 29 15Z" fill="#4363F9"/>
<path d="M54 15C54 16.1046 53.1046 17 52 17C50.8954 17 50 16.1046 50 15C50 13.8954 50.8954 13 52 13C53.1046 13 54 13.8954 54 15Z" fill="#4363F9"/>
<path d="M79 15C79 16.1046 78.1046 17 77 17C75.8954 17 75 16.1046 75 15C75 13.8954 75.8954 13 77 13C78.1046 13 79 13.8954 79 15Z" fill="#4363F9"/>
<path d="M104 15C104 16.1046 103.105 17 102 17C100.895 17 100 16.1046 100 15C100 13.8954 100.895 13 102 13C103.105 13 104 13.8954 104 15Z" fill="#4363F9"/>
<path d="M129 15C129 16.1046 128.105 17 127 17C125.895 17 125 16.1046 125 15C125 13.8954 125.895 13 127 13C128.105 13 129 13.8954 129 15Z" fill="#4363F9"/>
<path d="M154 15C154 16.1046 153.105 17 152 17C150.895 17 150 16.1046 150 15C150 13.8954 150.895 13 152 13C153.105 13 154 13.8954 154 15Z" fill="#4363F9"/>
<path d="M179 15C179 16.1046 178.105 17 177 17C175.895 17 175 16.1046 175 15C175 13.8954 175.895 13 177 13C178.105 13 179 13.8954 179 15Z" fill="#4363F9"/>
<path d="M204 15C204 16.1046 203.105 17 202 17C200.895 17 200 16.1046 200 15C200 13.8954 200.895 13 202 13C203.105 13 204 13.8954 204 15Z" fill="#4363F9"/>
<path d="M229 15C229 16.1046 228.105 17 227 17C225.895 17 225 16.1046 225 15C225 13.8954 225.895 13 227 13C228.105 13 229 13.8954 229 15Z" fill="#4363F9"/>
<path d="M254 15C254 16.1046 253.105 17 252 17C250.895 17 250 16.1046 250 15C250 13.8954 250.895 13 252 13C253.105 13 254 13.8954 254 15Z" fill="#4363F9"/>
<path d="M4 -10C4 -8.89543 3.10457 -8 2 -8C0.89543 -8 0 -8.89543 0 -10C0 -11.1046 0.89543 -12 2 -12C3.10457 -12 4 -11.1046 4 -10Z" fill="#4363F9"/>
<path d="M29 -10C29 -8.89543 28.1046 -8 27 -8C25.8954 -8 25 -8.89543 25 -10C25 -11.1046 25.8954 -12 27 -12C28.1046 -12 29 -11.1046 29 -10Z" fill="#4363F9"/>
<path d="M54 -10C54 -8.89543 53.1046 -8 52 -8C50.8954 -8 50 -8.89543 50 -10C50 -11.1046 50.8954 -12 52 -12C53.1046 -12 54 -11.1046 54 -10Z" fill="#4363F9"/>
<path d="M79 -10C79 -8.89543 78.1046 -8 77 -8C75.8954 -8 75 -8.89543 75 -10C75 -11.1046 75.8954 -12 77 -12C78.1046 -12 79 -11.1046 79 -10Z" fill="#4363F9"/>
<path d="M104 -10C104 -8.89543 103.105 -8 102 -8C100.895 -8 100 -8.89543 100 -10C100 -11.1046 100.895 -12 102 -12C103.105 -12 104 -11.1046 104 -10Z" fill="#4363F9"/>
<path d="M129 -10C129 -8.89543 128.105 -8 127 -8C125.895 -8 125 -8.89543 125 -10C125 -11.1046 125.895 -12 127 -12C128.105 -12 129 -11.1046 129 -10Z" fill="#4363F9"/>
<path d="M154 -10C154 -8.89543 153.105 -8 152 -8C150.895 -8 150 -8.89543 150 -10C150 -11.1046 150.895 -12 152 -12C153.105 -12 154 -11.1046 154 -10Z" fill="#4363F9"/>
<path d="M179 -10C179 -8.89543 178.105 -8 177 -8C175.895 -8 175 -8.89543 175 -10C175 -11.1046 175.895 -12 177 -12C178.105 -12 179 -11.1046 179 -10Z" fill="#4363F9"/>
<path d="M204 -10C204 -8.89543 203.105 -8 202 -8C200.895 -8 200 -8.89543 200 -10C200 -11.1046 200.895 -12 202 -12C203.105 -12 204 -11.1046 204 -10Z" fill="#4363F9"/>
<path d="M229 -10C229 -8.89543 228.105 -8 227 -8C225.895 -8 225 -8.89543 225 -10C225 -11.1046 225.895 -12 227 -12C228.105 -12 229 -11.1046 229 -10Z" fill="#4363F9"/>
<path d="M254 -10C254 -8.89543 253.105 -8 252 -8C250.895 -8 250 -8.89543 250 -10C250 -11.1046 250.895 -12 252 -12C253.105 -12 254 -11.1046 254 -10Z" fill="#4363F9"/>
<path d="M4 -35C4 -33.8954 3.10457 -33 2 -33C0.89543 -33 0 -33.8954 0 -35C0 -36.1046 0.89543 -37 2 -37C3.10457 -37 4 -36.1046 4 -35Z" fill="#4363F9"/>
<path d="M29 -35C29 -33.8954 28.1046 -33 27 -33C25.8954 -33 25 -33.8954 25 -35C25 -36.1046 25.8954 -37 27 -37C28.1046 -37 29 -36.1046 29 -35Z" fill="#4363F9"/>
<path d="M54 -35C54 -33.8954 53.1046 -33 52 -33C50.8954 -33 50 -33.8954 50 -35C50 -36.1046 50.8954 -37 52 -37C53.1046 -37 54 -36.1046 54 -35Z" fill="#4363F9"/>
<path d="M79 -35C79 -33.8954 78.1046 -33 77 -33C75.8954 -33 75 -33.8954 75 -35C75 -36.1046 75.8954 -37 77 -37C78.1046 -37 79 -36.1046 79 -35Z" fill="#4363F9"/>
<path d="M104 -35C104 -33.8954 103.105 -33 102 -33C100.895 -33 100 -33.8954 100 -35C100 -36.1046 100.895 -37 102 -37C103.105 -37 104 -36.1046 104 -35Z" fill="#4363F9"/>
<path d="M129 -35C129 -33.8954 128.105 -33 127 -33C125.895 -33 125 -33.8954 125 -35C125 -36.1046 125.895 -37 127 -37C128.105 -37 129 -36.1046 129 -35Z" fill="#4363F9"/>
<path d="M154 -35C154 -33.8954 153.105 -33 152 -33C150.895 -33 150 -33.8954 150 -35C150 -36.1046 150.895 -37 152 -37C153.105 -37 154 -36.1046 154 -35Z" fill="#4363F9"/>
<path d="M179 -35C179 -33.8954 178.105 -33 177 -33C175.895 -33 175 -33.8954 175 -35C175 -36.1046 175.895 -37 177 -37C178.105 -37 179 -36.1046 179 -35Z" fill="#4363F9"/>
<path d="M204 -35C204 -33.8954 203.105 -33 202 -33C200.895 -33 200 -33.8954 200 -35C200 -36.1046 200.895 -37 202 -37C203.105 -37 204 -36.1046 204 -35Z" fill="#4363F9"/>
<path d="M229 -35C229 -33.8954 228.105 -33 227 -33C225.895 -33 225 -33.8954 225 -35C225 -36.1046 225.895 -37 227 -37C228.105 -37 229 -36.1046 229 -35Z" fill="#4363F9"/>
<path d="M254 -35C254 -33.8954 253.105 -33 252 -33C250.895 -33 250 -33.8954 250 -35C250 -36.1046 250.895 -37 252 -37C253.105 -37 254 -36.1046 254 -35Z" fill="#4363F9"/>
</svg>
