<svg width="601" height="440" viewBox="0 0 601 440" fill="none" xmlns="http://www.w3.org/2000/svg">
<path d="M43.7605 336.91L2.88726 450.061C-6.81076 476.909 13.9263 504.982 42.4383 503.604L699.93 471.839C721.246 470.809 738 453.227 738 431.886V6.63941C738 -16.0819 719.097 -34.2405 696.394 -33.3283L543.963 -27.2039C526.205 -26.4904 511.048 -14.1468 506.754 3.09804L450.972 227.098C450.401 229.391 448.342 231 445.979 231C442.832 231 440.422 228.2 440.891 225.088L474.072 4.96206C477.719 -19.231 458.985 -41 434.519 -41H405.63C389.001 -41 374.106 -30.7116 368.22 -15.1592L331.972 80.6107C331.086 82.9515 328.844 84.5 326.341 84.5C322.713 84.5 319.909 81.3135 320.37 77.7141L323.25 55.25C325.239 39.7352 313.152 26 297.511 26H270.003C252.224 26 236.579 37.7353 231.602 54.804L134.759 386.968C133.716 390.543 130.44 393 126.717 393C121.6 393 117.678 388.451 118.433 383.389L123.15 351.75C126.389 330.025 109.56 310.5 87.5947 310.5H81.3812C64.5298 310.5 49.4856 321.061 43.7605 336.91Z" fill="#DCE2F8"/>
</svg>
