<svg width="576" height="388" viewBox="0 0 576 388" fill="none" xmlns="http://www.w3.org/2000/svg">
<path d="M444.45 150.077C440.922 153.381 426.948 165.758 422.899 168.359C422.331 167.667 413.805 156.18 413.805 156.18C413.647 155.961 413.437 155.784 413.195 155.663C412.953 155.543 412.685 155.484 412.415 155.49C412.144 155.496 411.879 155.568 411.643 155.7C411.407 155.831 411.206 156.018 411.058 156.245L391.989 185.016L379.916 180.257C379.616 180.129 379.282 180.106 378.968 180.193C378.654 180.279 378.378 180.469 378.186 180.733L356.341 209.14C356.209 209.315 356.13 209.526 356.114 209.745C356.098 209.964 356.145 210.184 356.25 210.377C356.354 210.571 356.512 210.73 356.705 210.836C356.897 210.943 357.116 210.992 357.336 210.977L445.35 217.896C445.751 217.867 446.129 217.694 446.412 217.407C446.695 217.12 446.863 216.74 446.886 216.338L447.328 151.42C447.35 151.078 447.268 150.737 447.093 150.442C446.918 150.147 446.658 149.912 446.347 149.766C446.036 149.621 445.689 149.573 445.351 149.629C445.012 149.684 444.698 149.84 444.45 150.077Z" fill="#FFD02F"/>
<path d="M343.743 295.782L462.587 313.435C463.218 313.534 463.864 313.494 464.479 313.317C465.093 313.14 465.662 312.83 466.143 312.409C466.625 311.988 467.009 311.467 467.267 310.881C467.525 310.296 467.651 309.662 467.638 309.022V138.002C467.577 136.848 467.095 135.756 466.285 134.931C465.877 134.523 465.391 134.201 464.856 133.985C464.32 133.77 463.747 133.665 463.17 133.677C444.266 134.001 296.11 136.509 286.571 136.661C285.382 136.71 284.252 137.196 283.4 138.026C282.547 138.857 282.031 139.973 281.952 141.161V238.785C281.898 239.098 281.736 239.382 281.493 239.587C281.251 239.792 280.943 239.905 280.625 239.905C280.308 239.905 280 239.792 279.757 239.587C279.515 239.382 279.352 239.098 279.299 238.785V141.161C279.261 140.185 279.42 139.212 279.766 138.3C280.112 137.387 280.638 136.554 281.314 135.849C281.989 135.144 282.799 134.583 283.696 134.198C284.593 133.814 285.559 133.614 286.535 133.611C296.053 133.421 444.207 130.627 463.113 130.28C464.14 130.253 465.161 130.434 466.116 130.811C467.071 131.189 467.94 131.755 468.671 132.476C469.402 133.197 469.98 134.058 470.371 135.007C470.761 135.957 470.956 136.976 470.944 138.002C470.944 321.06 471.307 309.75 470.186 312.201C469.489 313.7 468.326 314.934 466.871 315.717C465.416 316.501 463.746 316.793 462.111 316.549L343.396 298.033C343.101 297.981 342.838 297.817 342.661 297.575C342.485 297.333 342.408 297.032 342.449 296.735C342.494 296.438 342.656 296.17 342.898 295.991C343.141 295.812 343.445 295.737 343.743 295.782ZM225.071 277.721L239.997 279.805C241.142 279.956 242.304 279.734 243.313 279.173C244.322 278.613 245.124 277.742 245.6 276.69C246.32 275.048 245.979 279.583 245.817 221.936C245.818 220.663 245.336 219.438 244.469 218.507C243.601 217.576 242.413 217.008 241.143 216.919C168.39 211.974 171.611 211.639 169.716 212.311C168.67 212.668 167.759 213.34 167.108 214.234C166.458 215.128 166.1 216.202 166.082 217.307L165.931 229.961C165.931 230.265 165.81 230.557 165.595 230.772C165.38 230.987 165.089 231.108 164.785 231.108C164.481 231.108 164.189 230.987 163.974 230.772C163.759 230.557 163.638 230.265 163.638 229.961C163.546 216.345 163.229 216.197 164.093 214.105C164.75 212.564 165.867 211.263 167.291 210.382C168.716 209.5 170.378 209.08 172.05 209.179C178.583 209.57 232.447 212.944 241.359 213.537C243.494 213.681 245.494 214.629 246.956 216.191C248.417 217.753 249.232 219.812 249.233 221.951C249.211 229.242 249.044 269.087 248.995 274.495C248.987 275.665 248.726 276.82 248.229 277.881C247.733 278.941 247.013 279.881 246.119 280.637C245.225 281.393 244.178 281.946 243.05 282.26C241.922 282.573 240.74 282.639 239.584 282.452L224.725 279.989C224.427 279.942 224.16 279.779 223.982 279.536C223.805 279.293 223.731 278.989 223.777 278.691C223.823 278.392 223.985 278.123 224.226 277.942C224.468 277.761 224.772 277.681 225.071 277.721ZM171.274 136.034C247.248 134.166 241.826 134.029 243.957 134.908C245.49 135.524 246.807 136.579 247.74 137.943C248.673 139.306 249.182 140.915 249.201 142.566V195.326C249.21 196.467 248.983 197.597 248.534 198.645C248.084 199.694 247.423 200.638 246.591 201.418C245.759 202.198 244.774 202.798 243.699 203.179C242.624 203.56 241.482 203.714 240.344 203.632L170.842 198.916C168.765 198.808 166.815 197.884 165.417 196.344C164.019 194.805 163.286 192.775 163.379 190.697V143.8C163.476 141.751 164.343 139.815 165.807 138.379C167.271 136.943 169.224 136.113 171.274 136.055V136.034ZM171.296 138.326C169.865 138.369 168.506 138.966 167.507 139.992C166.579 141.037 166.097 142.404 166.166 143.8V190.697C166.257 191.973 166.8 193.175 167.697 194.087C168.594 194.999 169.787 195.561 171.061 195.673L240.594 200.237C241.265 200.273 241.937 200.174 242.569 199.945C243.201 199.715 243.781 199.361 244.273 198.902C244.764 198.444 245.159 197.891 245.432 197.276C245.704 196.662 245.851 195.998 245.861 195.326C245.861 137.712 246.014 141.941 245.503 140.642C245.245 140.032 244.87 139.48 244.399 139.016C243.927 138.552 243.369 138.186 242.756 137.938C241.359 137.389 246.846 137.502 171.308 138.349L171.296 138.326Z" fill="#1D1C1D"/>
<path d="M444.415 214.916C439.959 214.57 356.829 208.988 356.829 208.988C356.679 208.973 356.529 208.989 356.385 209.034C356.242 209.078 356.109 209.151 355.994 209.248C355.88 209.344 355.785 209.463 355.717 209.597C355.649 209.731 355.608 209.877 355.597 210.026C355.572 210.333 355.669 210.637 355.868 210.873C356.066 211.108 356.35 211.255 356.656 211.282L445.995 218.442C446.228 218.462 446.462 218.431 446.682 218.353C446.902 218.274 447.102 218.15 447.27 217.987C447.617 217.664 447.532 217.209 447.532 216.733V150.541C447.532 149.935 446.73 149.416 446.124 149.416C445.824 149.416 445.536 149.535 445.322 149.745C445.108 149.955 444.984 150.241 444.978 150.541C444.978 150.541 444.415 210.157 444.415 214.916Z" fill="#1D1C1D"/>
<path d="M224.363 246.042C222.468 245.663 220.763 240.756 219.815 238.861C219.688 238.582 219.455 238.364 219.168 238.254C218.881 238.145 218.562 238.152 218.281 238.276C218.143 238.337 218.018 238.424 217.914 238.533C217.81 238.643 217.728 238.771 217.674 238.912C217.62 239.053 217.593 239.203 217.597 239.354C217.601 239.505 217.634 239.653 217.695 239.791C218.329 242.323 219.313 244.755 220.617 247.016C222.153 249.134 224.834 250.282 226.695 248.421C228.188 246.97 228.671 243.715 230.74 241.953C231.591 241.159 232.256 241.385 233.163 242.105C233.844 242.661 234.467 243.284 235.024 243.965C236.841 246.555 238.235 249.418 239.154 252.445C239.19 252.593 239.255 252.731 239.347 252.852C239.438 252.972 239.553 253.073 239.684 253.148C239.816 253.223 239.962 253.27 240.112 253.287C240.263 253.304 240.415 253.289 240.56 253.245C240.844 253.166 241.086 252.98 241.236 252.726C241.385 252.472 241.43 252.169 241.361 251.883C240.841 248.343 239.565 244.956 237.619 241.953C233.324 236.226 228.775 236.578 225.289 244.16C225.09 244.836 224.777 245.472 224.363 246.042Z" fill="#267DFF"/>
<path d="M216.343 146.412C221.947 146.561 227.272 148.892 231.183 152.908C235.095 156.925 237.283 162.31 237.283 167.916C237.283 173.522 235.095 178.907 231.183 182.924C227.272 186.94 221.947 189.271 216.343 189.42C213.584 189.366 210.864 188.765 208.339 187.652C205.814 186.539 203.535 184.936 201.634 182.937C199.733 180.937 198.247 178.58 197.263 176.003C196.278 173.425 195.815 170.678 195.9 167.92C196.137 156.723 204.503 146.412 216.343 146.412ZM216.343 186.108C221.064 186.001 225.55 184.026 228.817 180.616C232.085 177.207 233.867 172.641 233.773 167.92C233.773 157.238 225.001 149.084 215.409 149.731C215.577 152.655 216.451 165.029 216.559 167.645C216.561 167.945 216.484 168.24 216.336 168.501C216.188 168.762 215.974 168.979 215.715 169.13C215.456 169.281 215.162 169.362 214.862 169.363C214.562 169.365 214.267 169.287 214.007 169.138C209.261 166.225 204.672 163.063 200.259 159.665C194.615 171.967 203.459 186.212 216.343 186.099V186.108Z" fill="#ED6F78"/>
<path d="M338.788 233.057C338.812 232.752 338.954 232.468 339.185 232.266C339.415 232.064 339.715 231.961 340.021 231.977C340.021 231.977 433.904 237.968 440.665 238.444C442.249 238.56 443.732 239.263 444.824 240.416C445.916 241.569 446.538 243.088 446.569 244.675C446.634 249.26 447.137 295.79 447.137 295.79C447.143 296.091 447.029 296.383 446.82 296.6C446.611 296.817 446.324 296.943 446.023 296.949C445.721 296.954 445.43 296.84 445.212 296.631C444.995 296.422 444.87 296.135 444.864 295.834C444.864 295.834 444.072 271.52 443.585 256.318L431.99 255.575C432.636 267.282 433.394 282.84 433.316 294.523C433.329 294.676 433.31 294.83 433.261 294.976C433.213 295.123 433.135 295.257 433.034 295.373C432.932 295.489 432.808 295.582 432.669 295.649C432.53 295.716 432.38 295.754 432.226 295.761C432.072 295.768 431.918 295.745 431.774 295.691C431.629 295.638 431.497 295.556 431.385 295.451C431.273 295.345 431.183 295.218 431.121 295.077C431.059 294.936 431.026 294.784 431.024 294.631C429.809 282.528 429.129 267.609 428.684 255.361C409.133 254.103 360.368 250.554 356.164 250.152C356.935 262.003 357.666 273.835 357.666 284.256C357.68 284.561 357.574 284.86 357.369 285.087C357.164 285.314 356.878 285.451 356.573 285.468C356.268 285.485 355.968 285.381 355.739 285.179C355.511 284.976 355.371 284.691 355.351 284.386C354.394 274.08 353.496 263.074 352.818 249.83C350.22 249.575 348.737 249.419 348.737 249.419C348.433 249.395 348.152 249.252 347.954 249.021C347.755 248.791 347.656 248.491 347.678 248.188C347.687 248.037 347.727 247.889 347.794 247.753C347.862 247.618 347.955 247.497 348.07 247.398C348.185 247.299 348.318 247.224 348.462 247.178C348.606 247.131 348.758 247.114 348.909 247.127C348.909 247.127 350.283 247.182 352.698 247.293C352.556 244.073 352.486 238.461 352.477 235.221L339.876 234.274C339.57 234.256 339.285 234.117 339.081 233.89C338.877 233.662 338.772 233.363 338.788 233.057ZM443.507 254.014C443.358 249.334 443.248 245.84 443.218 244.739C443.202 243.986 442.904 243.265 442.383 242.721C441.863 242.176 441.156 241.846 440.404 241.797C439.298 241.723 435.857 241.469 430.857 241.1C431.109 244.016 431.658 250.437 431.825 252.864C432.14 252.89 441.802 253.837 443.507 254.014ZM355.976 247.443C355.777 247.443 404.613 250.713 428.591 252.606C428.527 250.397 428.46 242.095 428.462 240.922C409.876 239.541 374.744 236.898 354.762 235.391C354.9 236.735 355.787 245.351 355.976 247.443Z" fill="#1D1C1D"/>
<path d="M339.607 161.153C337.696 161.367 335.768 161.389 333.853 161.218C331.001 161.161 328.162 160.835 325.372 160.244C325.068 160.238 324.779 160.112 324.568 159.893C324.357 159.674 324.242 159.38 324.248 159.076C324.254 158.772 324.38 158.482 324.599 158.272C324.818 158.061 325.112 157.946 325.416 157.951C326.628 157.8 327.816 157.627 329.05 157.584C331.466 157.599 333.879 157.758 336.276 158.059C337.473 158.272 338.658 158.554 339.823 158.904C339.971 158.916 340.116 158.957 340.249 159.025C340.381 159.094 340.498 159.189 340.593 159.304C340.688 159.419 340.759 159.552 340.801 159.695C340.844 159.838 340.857 159.988 340.84 160.136C340.806 160.432 340.658 160.703 340.428 160.893C340.198 161.082 339.904 161.176 339.607 161.153Z" fill="#1D1C1D"/>
<path d="M307.753 159.729C305.031 159.955 302.294 159.933 299.576 159.662C297.723 159.585 295.882 159.324 294.081 158.884C293.783 158.854 293.508 158.711 293.314 158.484C293.119 158.257 293.02 157.963 293.037 157.664C293.054 157.366 293.185 157.085 293.404 156.881C293.623 156.677 293.913 156.566 294.212 156.57C295.969 156.328 297.743 156.226 299.517 156.267C302.407 156.175 305.292 156.584 308.043 157.478C308.198 157.486 308.35 157.527 308.49 157.597C308.629 157.667 308.752 157.765 308.852 157.884C308.952 158.004 309.026 158.143 309.07 158.292C309.114 158.442 309.127 158.599 309.108 158.753C309.088 158.908 309.038 159.057 308.958 159.191C308.879 159.325 308.773 159.442 308.647 159.533C308.521 159.625 308.377 159.689 308.225 159.723C308.073 159.756 307.915 159.758 307.762 159.729H307.753Z" fill="#1D1C1D"/>
<path d="M341.985 174.631C340.445 174.904 338.893 175.099 337.333 175.215C334.218 175.338 331.099 175.287 327.989 175.063C326.432 174.913 324.895 174.631 323.359 174.371C323.207 174.364 323.059 174.327 322.922 174.262C322.785 174.196 322.663 174.105 322.561 173.992C322.46 173.88 322.382 173.748 322.332 173.605C322.282 173.462 322.26 173.311 322.269 173.159C322.278 173.008 322.316 172.86 322.382 172.724C322.448 172.587 322.541 172.466 322.654 172.365C322.768 172.265 322.9 172.188 323.043 172.139C323.186 172.089 323.338 172.069 323.489 172.079C328.091 171.726 332.712 171.682 337.32 171.948C338.576 171.984 341.395 172.316 341.928 172.359C342.229 172.351 342.522 172.462 342.741 172.67C342.96 172.877 343.088 173.162 343.097 173.464C343.105 173.765 342.994 174.058 342.787 174.277C342.579 174.496 342.294 174.624 341.992 174.633L341.985 174.631Z" fill="#E12D05"/>
<path d="M311.786 173.363C309.923 173.655 308.045 173.85 306.161 173.947C302.424 174.048 298.683 173.947 294.956 173.644C293.075 173.471 291.235 173.168 289.398 172.909C289.244 172.906 289.092 172.873 288.951 172.811C288.81 172.749 288.683 172.659 288.578 172.547C288.472 172.435 288.39 172.303 288.337 172.158C288.283 172.014 288.26 171.86 288.267 171.706C288.274 171.553 288.312 171.402 288.379 171.263C288.446 171.124 288.54 171 288.655 170.899C288.771 170.797 288.906 170.72 289.052 170.671C289.198 170.622 289.352 170.604 289.506 170.616C290.847 170.552 292.188 170.464 293.53 170.444C297.059 170.356 307.55 170.754 308.001 170.788C309.234 170.876 310.464 171.006 311.722 171.092C312.023 171.083 312.316 171.195 312.535 171.402C312.754 171.609 312.882 171.895 312.891 172.196C312.899 172.498 312.788 172.79 312.581 173.009C312.374 173.229 312.088 173.357 311.786 173.365V173.363Z" fill="#9767FF"/>
<path d="M337.273 192.152C336.614 192.215 335.428 192.391 334.547 192.391C333.666 192.391 330.244 192.202 329.161 192.044C328.232 191.916 327.366 191.677 326.457 191.476C326.158 191.46 325.876 191.328 325.672 191.108C325.468 190.888 325.357 190.598 325.363 190.298C325.368 189.999 325.49 189.713 325.702 189.501C325.915 189.289 326.201 189.168 326.501 189.163C329.244 188.642 332.058 188.628 334.807 189.119C335.73 189.298 336.635 189.559 337.512 189.898C337.671 189.898 337.829 189.932 337.974 189.997C338.119 190.062 338.249 190.157 338.355 190.276C338.461 190.394 338.541 190.533 338.59 190.685C338.639 190.836 338.656 190.996 338.639 191.155C338.622 191.313 338.573 191.466 338.493 191.603C338.413 191.741 338.306 191.861 338.177 191.954C338.048 192.048 337.901 192.113 337.746 192.146C337.59 192.18 337.429 192.18 337.273 192.147V192.152Z" fill="#1D1C1D"/>
<path d="M346.429 206.952C344.913 207.02 343.559 207.141 340.762 207.08C338.013 207.018 332.168 206.512 329.491 206.108C327.631 205.826 325.793 205.394 323.932 205.004C323.628 204.964 323.353 204.804 323.166 204.561C322.98 204.318 322.897 204.01 322.938 203.706C322.978 203.402 323.137 203.126 323.38 202.94C323.624 202.753 323.931 202.671 324.235 202.711C328.717 202.748 333.193 203.015 337.647 203.511C340.636 203.727 343.609 204.118 346.552 204.68C346.701 204.69 346.847 204.729 346.981 204.795C347.115 204.861 347.234 204.953 347.333 205.066C347.431 205.178 347.506 205.309 347.554 205.45C347.602 205.592 347.621 205.742 347.611 205.891C347.603 206.038 347.567 206.182 347.503 206.315C347.439 206.449 347.35 206.568 347.24 206.666C347.13 206.765 347.002 206.841 346.863 206.89C346.724 206.939 346.576 206.96 346.429 206.952Z" fill="#9767FF"/>
<path d="M305.29 190.664C304.56 190.873 303.815 191.024 303.062 191.117C301.558 191.24 300.046 191.248 298.541 191.14C297.768 191.018 297.003 190.851 296.249 190.642C296.094 190.642 295.94 190.611 295.798 190.551C295.655 190.491 295.526 190.403 295.418 190.292C295.31 190.181 295.225 190.049 295.169 189.905C295.112 189.761 295.085 189.607 295.09 189.452C295.094 189.297 295.129 189.145 295.194 189.004C295.258 188.863 295.35 188.736 295.464 188.632C295.578 188.527 295.712 188.446 295.858 188.394C296.004 188.342 296.158 188.32 296.313 188.328C298.064 187.878 299.874 187.703 301.679 187.809C302.922 187.781 304.161 187.978 305.333 188.393C305.635 188.404 305.921 188.532 306.131 188.75C306.341 188.967 306.458 189.258 306.459 189.56C306.447 189.86 306.318 190.144 306.099 190.351C305.881 190.557 305.59 190.67 305.29 190.664Z" fill="#1D1C1D"/>
<path d="M312.832 205.8C311.18 205.838 309.547 205.942 307.055 205.887C301.27 205.849 295.5 205.292 289.814 204.222C289.514 204.184 289.241 204.031 289.052 203.795C288.863 203.559 288.773 203.259 288.801 202.958C288.83 202.657 288.974 202.379 289.204 202.183C289.433 201.987 289.73 201.887 290.032 201.906C294.63 201.785 299.231 201.93 303.812 202.34C306.902 202.51 309.975 202.915 313.004 203.551C313.154 203.558 313.3 203.595 313.434 203.661C313.568 203.726 313.688 203.819 313.785 203.932C313.882 204.045 313.955 204.177 314 204.32C314.044 204.463 314.059 204.613 314.043 204.762C314.017 205.059 313.876 205.334 313.65 205.529C313.423 205.723 313.13 205.82 312.832 205.8Z" fill="#E12D05"/>
<path d="M439.093 262.297C439.498 263.511 439.459 264.829 438.985 266.018C438.57 267.568 437.032 267.513 436.691 265.954C436.322 264.741 436.368 263.439 436.821 262.255C437.03 261.662 437.341 261.118 437.968 261.13C438.595 261.141 438.934 261.691 439.093 262.297Z" fill="#1D1C1D"/>
<path d="M411.832 265.496C403.385 264.514 393.545 263.791 378.757 260.867C378.451 260.821 378.175 260.656 377.989 260.408C377.802 260.16 377.721 259.848 377.763 259.541C377.809 259.241 377.971 258.972 378.213 258.79C378.456 258.608 378.76 258.528 379.06 258.567C384.479 259.005 383.312 258.747 391.866 259.672C398.756 260.276 405.58 261.47 412.266 263.241C412.557 263.308 412.812 263.484 412.977 263.734C413.142 263.983 413.205 264.286 413.152 264.581C413.096 264.876 412.926 265.137 412.679 265.308C412.432 265.479 412.128 265.546 411.832 265.496Z" fill="#1D1C1D"/>
<path d="M415.847 281.859C415.657 281.859 413.729 281.891 412.905 281.815C409.993 281.571 407.123 280.968 404.36 280.021C404.056 279.983 403.779 279.827 403.59 279.585C403.401 279.343 403.316 279.037 403.354 278.733C403.391 278.428 403.548 278.151 403.79 277.963C404.031 277.774 404.338 277.689 404.642 277.726C405.642 277.652 406.646 277.63 407.649 277.662C409.616 277.831 411.568 278.142 413.49 278.592C414.447 278.883 415.385 279.23 416.302 279.631C416.593 279.697 416.848 279.874 417.013 280.124C417.178 280.374 417.241 280.677 417.188 280.972C417.158 281.118 417.1 281.257 417.016 281.381C416.933 281.505 416.826 281.611 416.701 281.693C416.577 281.776 416.437 281.833 416.291 281.861C416.144 281.889 415.993 281.889 415.847 281.859Z" fill="#1D1C1D"/>
<path d="M325.454 256.941C315.316 256.698 306.182 254.737 296.165 253.151C296.016 253.141 295.869 253.1 295.735 253.032C295.602 252.964 295.483 252.87 295.386 252.755C295.289 252.64 295.216 252.507 295.171 252.364C295.126 252.22 295.111 252.069 295.125 251.92C295.15 251.616 295.293 251.335 295.524 251.136C295.755 250.938 296.055 250.838 296.359 250.859C298.761 250.903 301.139 250.967 303.518 251.162C310.963 251.957 318.362 253.134 325.685 254.688C325.845 254.688 326.002 254.722 326.147 254.787C326.293 254.852 326.423 254.946 326.529 255.065C326.636 255.183 326.716 255.323 326.765 255.474C326.814 255.625 326.831 255.785 326.815 255.944C326.798 256.102 326.748 256.255 326.669 256.393C326.589 256.531 326.481 256.651 326.353 256.744C326.224 256.838 326.077 256.903 325.921 256.937C325.765 256.97 325.604 256.97 325.449 256.937L325.454 256.941Z" fill="#00C27C"/>
<path d="M335.245 274.086C324.817 272.755 314.464 270.892 304.226 268.504C303.927 268.451 303.662 268.282 303.487 268.033C303.313 267.785 303.244 267.477 303.296 267.178C303.351 266.876 303.522 266.607 303.773 266.43C304.024 266.253 304.334 266.181 304.638 266.231C311.115 266.956 310.259 266.68 316.665 267.703C323.134 268.524 329.518 269.914 335.743 271.856C336.039 271.922 336.296 272.103 336.459 272.359C336.621 272.614 336.675 272.924 336.609 273.22C336.543 273.516 336.362 273.773 336.106 273.935C335.851 274.098 335.541 274.152 335.245 274.086Z" fill="#00C27C"/>
<path d="M314.85 281.689C311.08 281.454 307.329 280.97 303.623 280.239C301.115 279.863 298.636 279.315 296.204 278.597C295.909 278.543 295.647 278.377 295.471 278.135C295.296 277.892 295.222 277.591 295.263 277.294C295.305 276.997 295.46 276.729 295.696 276.544C295.932 276.359 296.23 276.273 296.528 276.302C299.712 276.331 302.889 276.628 306.023 277.189C309.2 277.593 312.321 278.356 315.326 279.463C315.621 279.526 315.88 279.704 316.044 279.957C316.208 280.211 316.265 280.519 316.202 280.814C316.139 281.11 315.961 281.368 315.708 281.533C315.454 281.697 315.146 281.754 314.85 281.691V281.689Z" fill="#00C27C"/>
<path d="M186.58 157.423C185.672 157.602 184.755 157.729 183.833 157.802C181.978 157.873 180.121 157.815 178.274 157.63C177.333 157.474 176.401 157.264 175.483 157.003C175.177 156.976 174.893 156.829 174.695 156.593C174.496 156.358 174.399 156.053 174.424 155.747C174.436 155.595 174.479 155.448 174.549 155.314C174.619 155.179 174.715 155.06 174.832 154.963C174.949 154.866 175.084 154.794 175.23 154.75C175.375 154.706 175.528 154.692 175.678 154.708C177.849 154.331 180.06 154.237 182.255 154.428C183.76 154.446 185.254 154.687 186.688 155.142C186.838 155.147 186.985 155.182 187.121 155.245C187.257 155.308 187.379 155.398 187.48 155.509C187.581 155.62 187.659 155.75 187.708 155.891C187.758 156.033 187.779 156.182 187.77 156.332C187.764 156.482 187.729 156.629 187.665 156.766C187.602 156.902 187.513 157.024 187.402 157.126C187.292 157.227 187.162 157.306 187.021 157.357C186.88 157.408 186.73 157.431 186.58 157.423Z" fill="#1D1C1D"/>
<path d="M186.536 168.873C185.142 169.264 183.66 169.211 182.296 168.721C180.781 168.355 180.771 166.737 182.363 166.429C183.773 166.093 185.249 166.159 186.624 166.618C187.224 166.808 187.726 167.137 187.705 167.787C187.685 168.437 187.15 168.738 186.536 168.873Z" fill="#FFD02F"/>
<path d="M188.314 182.031C185.385 182.292 182.44 182.305 179.509 182.073C177.528 182.016 175.553 181.807 173.604 181.445C173.296 181.436 173.005 181.305 172.792 181.083C172.58 180.86 172.463 180.563 172.467 180.256C172.474 179.952 172.601 179.664 172.82 179.454C173.038 179.244 173.331 179.128 173.634 179.132C176.099 178.724 178.602 178.586 181.097 178.721C183.624 178.698 186.139 179.055 188.56 179.78C188.718 179.782 188.875 179.816 189.019 179.882C189.163 179.947 189.292 180.042 189.397 180.16C189.503 180.279 189.582 180.417 189.631 180.568C189.68 180.719 189.696 180.878 189.68 181.036C189.663 181.193 189.614 181.346 189.535 181.483C189.456 181.62 189.349 181.74 189.221 181.833C189.094 181.927 188.948 181.993 188.793 182.027C188.638 182.061 188.478 182.062 188.323 182.031H188.314Z" fill="#FFD02F"/>
<path d="M207.661 286.95C206.745 287.452 205.685 287.627 204.656 287.447C203.214 287.005 201.962 286.09 201.103 284.85C200.244 283.61 199.827 282.117 199.92 280.611C199.893 280.461 199.896 280.308 199.929 280.16C199.963 280.011 200.025 279.871 200.113 279.748C200.202 279.624 200.314 279.519 200.443 279.44C200.573 279.36 200.717 279.308 200.867 279.285C201.168 279.235 201.476 279.304 201.727 279.478C201.977 279.651 202.15 279.916 202.209 280.215C202.786 281.356 203.498 282.424 204.331 283.394C204.727 283.843 205.223 284.192 205.78 284.412C206.16 284.617 206.582 284.735 207.013 284.756C207.306 284.675 207.619 284.711 207.885 284.856C208.152 285.002 208.352 285.245 208.442 285.535C208.484 285.679 208.498 285.83 208.482 285.98C208.465 286.129 208.42 286.274 208.347 286.406C208.274 286.537 208.176 286.653 208.059 286.747C207.941 286.84 207.806 286.909 207.661 286.95Z" fill="#1D1C1D"/>
<path d="M202.383 262.276C201.625 263.413 202.383 265.26 204.088 266.386C205.793 267.511 207.765 267.511 208.521 266.386C209.277 265.26 208.521 263.422 206.835 262.276C205.149 261.13 203.135 261.147 202.383 262.276Z" fill="#1D1C1D"/>
<path d="M257.748 282.46C256.446 284.015 255.363 285.739 254.527 287.587C252.78 291.242 251.942 295.264 252.083 299.313C252.066 301.376 252.27 303.435 252.689 305.455C252.734 305.601 252.75 305.755 252.735 305.907C252.72 306.06 252.675 306.208 252.603 306.343C252.53 306.477 252.432 306.596 252.313 306.693C252.194 306.789 252.057 306.861 251.911 306.904C251.766 306.949 251.613 306.964 251.462 306.949C251.312 306.934 251.165 306.889 251.032 306.816C250.899 306.743 250.782 306.645 250.687 306.526C250.593 306.408 250.523 306.272 250.482 306.126C249.632 303.998 249.078 301.764 248.838 299.485C248.44 294.838 249.411 290.176 251.628 286.073C252.793 284.046 254.336 282.261 256.175 280.817C256.393 280.609 256.685 280.495 256.986 280.502C257.288 280.509 257.574 280.635 257.783 280.852C257.991 281.07 258.105 281.362 258.098 281.663C258.092 281.965 257.966 282.252 257.748 282.46Z" fill="#1D1C1D"/>
<path d="M248.857 285.135C248.478 285.704 247.697 287.45 247.58 287.687C246.76 289.403 246.15 291.212 245.763 293.074C245.524 294.068 245.221 295.019 245.072 295.972C245.069 296.279 244.944 296.573 244.724 296.788C244.505 297.003 244.21 297.122 243.903 297.119C243.596 297.116 243.302 296.991 243.087 296.772C242.872 296.552 242.753 296.257 242.756 295.95C242.584 294.834 242.521 293.704 242.567 292.575C242.797 290.262 243.544 288.029 244.751 286.043C245.408 285.066 246.244 284.222 247.214 283.555C247.425 283.336 247.713 283.209 248.016 283.201C248.32 283.193 248.614 283.304 248.836 283.511C248.945 283.616 249.033 283.741 249.093 283.88C249.154 284.018 249.186 284.168 249.188 284.319C249.19 284.47 249.161 284.62 249.105 284.76C249.048 284.901 248.964 285.028 248.857 285.135Z" fill="#1D1C1D"/>
<path d="M240.766 285.493C240.694 285.76 240.419 287.409 240.332 287.786C240.181 288.523 240.008 289.258 239.879 290.014C239.751 290.77 239.705 291.55 239.576 292.308C239.468 293.151 239.25 293.909 239.165 294.709C239.185 295.016 239.083 295.318 238.88 295.549C238.677 295.781 238.39 295.922 238.083 295.942C237.776 295.962 237.474 295.859 237.243 295.657C237.011 295.454 236.87 295.167 236.85 294.86C236.599 293.993 236.425 293.106 236.331 292.208C236.283 290.365 236.584 288.53 237.218 286.799C237.617 285.938 238.134 285.137 238.754 284.419C238.898 284.152 239.141 283.953 239.431 283.866C239.721 283.779 240.034 283.81 240.301 283.954C240.568 284.097 240.767 284.341 240.854 284.631C240.941 284.921 240.91 285.234 240.766 285.501V285.493Z" fill="#1D1C1D"/>
<path d="M229.984 304.769C226.525 306.876 221.91 309.149 217.669 312.254C217.414 312.419 217.235 312.678 217.17 312.975C217.105 313.272 217.16 313.582 217.322 313.838C217.485 314.095 217.742 314.277 218.038 314.344C218.334 314.412 218.645 314.36 218.903 314.2C222.98 311.951 227.273 310.475 232.79 307.02C233.095 306.832 233.332 306.553 233.468 306.223C233.604 305.892 233.632 305.527 233.548 305.18C232.367 298.827 232.64 292.289 234.348 286.057C234.396 285.915 234.416 285.765 234.406 285.616C234.396 285.466 234.357 285.319 234.291 285.185C234.224 285.05 234.132 284.93 234.019 284.831C233.907 284.732 233.776 284.656 233.633 284.608C233.491 284.56 233.341 284.54 233.191 284.55C233.042 284.56 232.895 284.599 232.761 284.665C232.626 284.731 232.506 284.824 232.407 284.936C232.308 285.049 232.232 285.18 232.184 285.322C229.499 291.432 228.732 298.213 229.984 304.769Z" fill="#1D1C1D"/>
<path d="M245.698 316.314C255.901 319.624 266.304 312.631 267.07 303.052C267.193 301.955 267.142 300.844 266.918 299.763C266.865 299.463 266.697 299.195 266.449 299.018C266.201 298.841 265.893 298.768 265.592 298.816C265.297 298.876 265.036 299.047 264.863 299.294C264.69 299.54 264.618 299.844 264.662 300.142C264.742 300.988 264.691 301.842 264.51 302.673C264.083 304.625 263.244 306.464 262.05 308.066C260.857 309.669 259.335 310.999 257.587 311.967C255.838 312.935 253.904 313.519 251.912 313.681C249.92 313.843 247.917 313.578 246.036 312.904C245.78 312.805 245.505 312.771 245.233 312.804C244.962 312.837 244.702 312.937 244.478 313.093C240.352 316.167 238.715 317.123 232.862 321.898C232.739 321.988 232.634 322.101 232.555 322.232C232.476 322.363 232.424 322.508 232.402 322.66C232.38 322.811 232.388 322.965 232.426 323.113C232.465 323.261 232.533 323.4 232.625 323.521C232.808 323.762 233.078 323.921 233.377 323.965C233.675 324.009 233.98 323.935 234.224 323.758C238.05 321.172 241.96 318.948 245.698 316.314Z" fill="#1D1C1D"/>
<path d="M290.279 236.984C287.147 239.76 284.554 243.086 282.628 246.796H282.672L282.207 247.676C279.696 252.43 278.349 257.711 278.278 263.086C278.206 268.462 279.411 273.777 281.794 278.596L282.036 279.085L281.572 279.372C276.344 282.606 261.606 290.47 260.464 291.071L260.463 291.072C260.401 291.104 260.357 291.126 260.323 291.144C260.316 291.147 260.31 291.151 260.304 291.154C260.301 291.167 260.298 291.182 260.295 291.198C260.287 291.24 260.278 291.292 260.263 291.363C260.145 291.956 259.853 293.164 258.709 295.929C258.661 296.061 258.651 296.205 258.682 296.342L258.097 296.475L258.682 296.342C258.714 296.481 258.786 296.609 258.89 296.707C258.994 296.806 259.125 296.872 259.266 296.896C259.407 296.921 259.552 296.903 259.683 296.846L259.688 296.844C265.999 294.136 272.154 291.077 278.123 287.681L278.42 288.202L278.123 287.681C279.148 287.098 280.243 286.567 281.329 286.041L281.417 285.999C282.539 285.455 283.651 284.914 284.709 284.307L285.158 284.05L285.478 284.456C288.698 288.532 292.793 291.831 297.46 294.11C302.127 296.389 307.247 297.589 312.441 297.622C317.634 297.655 322.769 296.519 327.464 294.299C332.16 292.08 336.296 288.832 339.567 284.798C342.838 280.763 345.16 276.045 346.361 270.992C347.562 265.939 347.611 260.68 346.505 255.606C345.399 250.531 343.166 245.77 339.971 241.675C336.776 237.58 332.701 234.256 328.048 231.949C324.01 229.948 319.615 228.767 315.118 228.474C310.621 228.182 306.111 228.783 301.847 230.244C297.584 231.704 293.652 233.995 290.279 236.984ZM260.212 291.204C260.212 291.204 260.213 291.203 260.213 291.203C260.211 291.204 260.211 291.204 260.212 291.204ZM298.763 290.119L298.426 289.955V289.948C291.269 286.292 285.801 280.005 283.175 272.4C280.509 264.677 280.988 256.215 284.51 248.843L284.673 248.501H284.714C288.547 241.432 294.977 236.122 302.654 233.699C310.447 231.239 318.895 231.953 326.165 235.684L326.168 235.686C333.275 239.384 338.639 245.732 341.101 253.356C343.562 260.98 342.922 269.266 339.319 276.422C335.717 283.578 329.441 289.027 321.851 291.59C314.261 294.154 305.967 293.625 298.763 290.119Z" fill="#1D1C1D" stroke="white" stroke-width="1.2"/>
<path d="M162.045 254.216C162.439 252.649 163.154 251.18 164.144 249.903C165.135 248.626 166.379 247.568 167.799 246.796C166.329 243.754 166.012 240.282 166.907 237.025C167.802 233.767 169.848 230.944 172.666 229.08C180.318 223.832 192.749 224.665 199.532 218.61C201.464 216.886 203.003 214.868 205.848 214.868C206.388 214.858 206.924 214.961 207.422 215.17C207.92 215.379 208.368 215.689 208.739 216.082C209.11 216.474 209.394 216.94 209.574 217.449C209.755 217.957 209.827 218.498 209.786 219.037C211.335 218.38 213.076 218.341 214.653 218.927C216.941 220.209 215.932 222.977 215.452 224.076C216.252 224.07 217.027 224.355 217.632 224.878C218.237 225.401 218.63 226.126 218.739 226.918C219.242 229.425 217.57 233.241 216.491 235.573C213.198 242.643 208.514 250.5 201.197 253.193C201.197 253.88 201.161 254.574 201.11 255.277C204.238 252.416 211.178 255.563 210.034 257.689C209.374 258.865 207.72 257.971 205.189 257.602C203.173 257.308 201.661 257.677 200.921 257.175C200.476 260.803 199.46 264.337 197.91 267.647C197.737 267.997 197.45 268.278 197.096 268.444C196.742 268.609 196.342 268.649 195.962 268.556C192.347 267.673 187.815 270.883 189.71 274.678C190.321 275.477 191.093 276.138 191.976 276.619C192.86 277.1 193.834 277.389 194.837 277.468C195.236 277.536 195.596 277.746 195.851 278.06C196.106 278.374 196.238 278.77 196.222 279.174C196.181 282.252 195.466 285.284 194.129 288.057C192.791 290.83 190.863 293.277 188.479 295.225C188.2 295.446 187.857 295.571 187.501 295.578C187.146 295.586 186.797 295.476 186.51 295.267C181.774 291.824 178.2 287.082 174.574 282.677C169.324 276.322 158.676 266.232 162.045 254.216Z" fill="#1D1C1D"/>
<path d="M111.019 373.749C112.329 367.486 114.324 361.387 116.968 355.56C124.047 338.662 134.66 323.522 151.513 315.963C158.796 312.725 165.668 312.598 173.189 311.268C172.723 304.319 172.242 304.112 173.038 303.134C173.199 302.962 173.393 302.823 173.608 302.725C173.823 302.628 174.056 302.574 174.292 302.566C178.926 302.484 183.561 302.667 188.174 303.112C188.104 300.591 188.289 298.07 188.725 295.586C188.737 295.282 188.868 294.995 189.092 294.788C189.315 294.582 189.611 294.472 189.915 294.484C190.219 294.495 190.506 294.627 190.713 294.85C190.919 295.073 191.029 295.369 191.018 295.673C191.295 298.234 191.197 300.821 190.726 303.352C193.714 303.657 197.09 304.08 201.394 304.75C201.394 304.154 201.375 299.097 201.468 297.761C201.499 297.411 201.661 297.085 201.922 296.849C202.182 296.612 202.522 296.483 202.874 296.486C210.394 296.384 211.644 285.914 211.894 278.402C211.91 278.031 212.044 277.675 212.278 277.387C212.512 277.098 212.832 276.893 213.192 276.801L217.171 275.786C214.811 267.96 212.046 260.262 208.886 252.724C208.824 252.587 208.789 252.44 208.784 252.289C208.779 252.139 208.803 251.989 208.856 251.849C208.909 251.708 208.989 251.579 209.091 251.469C209.194 251.359 209.317 251.271 209.454 251.209C209.591 251.146 209.739 251.112 209.889 251.107C210.039 251.102 210.189 251.126 210.33 251.179C210.47 251.232 210.599 251.312 210.709 251.414C210.819 251.517 210.908 251.64 210.97 251.777C214.412 259.115 217.728 264.77 220.898 276.596C220.957 276.816 220.971 277.045 220.939 277.27C220.908 277.494 220.831 277.711 220.714 277.905C220.597 278.1 220.442 278.269 220.258 278.402C220.074 278.535 219.865 278.63 219.643 278.681L215.252 279.817C214.814 288.389 212.7 298.604 204.111 299.243C204.054 299.834 203.846 303.515 203.753 305.137C206.705 305.622 209.666 306.153 212.658 306.708C213.03 306.781 213.368 306.976 213.618 307.262C213.869 307.547 214.018 307.907 214.043 308.286C214.219 311.279 214.517 313.144 214.647 316.658C242.769 327.342 263.544 356.125 265.044 386.052C265.055 386.355 264.949 386.65 264.747 386.876C264.545 387.101 264.264 387.24 263.962 387.263C263.812 387.273 263.66 387.253 263.518 387.204C263.375 387.155 263.243 387.078 263.13 386.977C263.018 386.877 262.926 386.755 262.861 386.618C262.796 386.482 262.759 386.334 262.752 386.183C260.457 352.048 231.286 321.302 205.345 318.263C203.723 318.073 184.796 315.925 182.352 315.601C151.492 311.645 131.744 328.46 119.418 356.633C116.743 362.247 114.69 368.137 113.296 374.198C113.242 374.499 113.07 374.766 112.818 374.94C112.567 375.115 112.256 375.182 111.955 375.128C111.649 375.067 111.38 374.888 111.205 374.63C111.03 374.372 110.963 374.055 111.019 373.749ZM197.92 313.919C202.415 314.408 206.866 315.25 211.229 316.437C211.14 314.352 210.85 311.34 210.72 309.805C199.335 307.497 187.766 306.209 176.152 305.955C176.313 307.96 176.423 309.913 176.732 312.208C180.237 312.382 187.882 312.571 197.92 313.919Z" fill="#1D1C1D"/>
<path d="M217.176 372.441C217.218 373.082 217.263 376.907 217.263 377.545C217.263 379.414 217.43 384.446 215.683 384.446C214.143 384.446 214.073 381.145 213.866 377.828C213.77 375.815 213.807 373.799 213.974 371.791C214.285 369.457 214.51 367.748 215.791 367.834C216.882 367.917 216.911 368.887 217.176 372.441Z" fill="#1D1C1D"/>
<path d="M139.723 367.262C139.533 368.141 138.898 370.982 138.62 371.847C137.964 374.218 137.549 376.004 136.284 375.784C134.941 375.553 135.194 373.613 135.482 371.069C135.835 368.88 136.312 366.714 136.911 364.58C137.89 361.637 138.404 360.362 139.527 360.643C141.142 360.989 140.253 364.672 139.723 367.262Z" fill="#1D1C1D"/>
<g filter="url(#filter0_d)">
<circle cx="106" cy="121" r="30" fill="#F3FBFF"/>
</g>
<g clip-path="url(#clip0)">
<path d="M117.661 107.357C117.41 106.443 116.92 105.612 116.241 104.949C115.563 104.286 114.72 103.816 113.8 103.586C110.284 102.446 105.045 103.3 102.367 103.387C100.937 103.355 99.5108 103.541 98.1371 103.939C97.144 104.278 96.279 104.913 95.6591 105.76C94.9453 106.797 94.5047 107.997 94.3781 109.249C94.2482 110.968 94.2092 112.693 94.2611 114.416C94.1786 118.141 94.0496 121.876 94.0616 125.612C94.0736 128.114 94.1441 130.604 94.3436 133.094C94.3458 133.151 94.3594 133.206 94.3834 133.257C94.4075 133.307 94.4415 133.353 94.4835 133.39C94.5255 133.428 94.5746 133.456 94.6279 133.474C94.6812 133.492 94.7375 133.499 94.7936 133.495C94.8502 133.492 94.9057 133.477 94.9566 133.452C95.0076 133.427 95.0531 133.392 95.0904 133.35C95.1277 133.307 95.1561 133.257 95.1739 133.203C95.1917 133.149 95.1986 133.093 95.1941 133.036C95.0567 130.567 95.0136 128.095 95.0651 125.623C95.1236 121.9 95.3351 118.165 95.4986 114.464C95.4833 112.786 95.5579 111.107 95.7221 109.436C95.8312 108.424 96.1996 107.457 96.7916 106.628C97.2524 106.019 97.8914 105.567 98.6201 105.337C98.6801 105.316 98.7461 105.308 98.8076 105.289C98.796 105.991 98.8548 106.692 98.9831 107.381C99.073 107.861 99.2698 108.314 99.5591 108.707C99.7621 108.94 100.02 109.118 100.309 109.225C102.342 110.096 110.55 109.198 110.659 109.178C111.277 109.11 111.856 108.842 112.309 108.415C112.632 108.047 112.855 107.601 112.956 107.122C113.094 106.468 113.183 105.804 113.22 105.136C113.888 105.281 114.505 105.603 115.006 106.068C115.508 106.534 115.875 107.125 116.07 107.78C116.316 109.838 116.387 111.912 116.281 113.981C116.235 119.14 115.963 125.87 115.905 128.981C115.965 130.462 115.945 131.945 115.846 133.423C115.838 134.273 115.562 135.099 115.059 135.784C114.155 136.582 113.027 137.082 111.829 137.216C109.833 137.569 107.613 137.452 105.921 137.591C103.75 137.905 101.551 137.973 99.3656 137.792C97.991 137.681 96.7045 137.071 95.7476 136.078C95.7078 136.023 95.6572 135.977 95.5989 135.943C95.5406 135.909 95.4759 135.887 95.4088 135.879C95.3417 135.871 95.2736 135.876 95.2088 135.896C95.1441 135.915 95.084 135.948 95.0323 135.991C94.9806 136.035 94.9385 136.089 94.9085 136.149C94.8786 136.21 94.8614 136.276 94.8582 136.344C94.8549 136.411 94.8656 136.479 94.8896 136.542C94.9136 136.605 94.9503 136.663 94.9976 136.711C96.0966 137.909 97.5978 138.662 99.2156 138.826C101.473 139.052 103.748 139.029 106 138.757C107.739 138.628 109.993 138.781 112.026 138.475C113.492 138.315 114.874 137.708 115.984 136.736C116.578 136.076 116.962 135.254 117.088 134.375C117.329 132.605 117.419 130.817 117.358 129.031C117.465 125.906 117.841 119.174 117.922 114.007C118.045 111.787 117.958 109.561 117.661 107.357ZM111.906 106.465C111.832 106.845 111.658 107.198 111.4 107.486C110.996 107.733 110.521 107.838 110.05 107.786C102.063 107.965 102.414 108.221 101.065 108.02C100.864 107.986 100.641 107.986 100.536 107.87C100.26 107.543 100.07 107.151 99.9836 106.732C99.8611 106.189 99.7769 105.637 99.7316 105.082C100.617 104.982 101.509 104.938 102.4 104.95C105.541 104.61 108.708 104.566 111.858 104.819C111.975 104.839 112.087 104.866 112.203 104.888C112.122 105.382 112.041 105.947 111.906 106.465Z" fill="#1D1C1D" stroke="#1D1C1D" stroke-width="0.4"/>
<path d="M99.0357 121.249C101.038 119.7 102.958 118.048 104.788 116.299C105.487 115.63 104.427 114.571 103.728 115.238C101.897 116.987 99.9774 118.639 97.9752 120.188C97.8346 120.329 97.7556 120.52 97.7556 120.719C97.7556 120.917 97.8346 121.108 97.9752 121.249C98.1182 121.385 98.3081 121.461 98.5055 121.461C98.7028 121.461 98.8927 121.385 99.0357 121.249ZM100.261 128.788C103.997 124.705 107.89 120.772 111.939 116.989C112.645 116.329 111.583 115.27 110.878 115.928C106.832 119.708 102.94 123.641 99.2007 127.727C98.5497 128.438 99.6072 129.502 100.261 128.788ZM107.208 130.528C108.545 128.604 110.072 126.819 111.766 125.2C111.838 125.131 111.895 125.048 111.934 124.956C111.974 124.865 111.994 124.766 111.995 124.667C111.996 124.567 111.977 124.469 111.939 124.376C111.902 124.284 111.846 124.2 111.776 124.13C111.705 124.06 111.621 124.004 111.529 123.966C111.437 123.929 111.338 123.91 111.239 123.91C111.139 123.911 111.041 123.932 110.949 123.971C110.858 124.011 110.775 124.068 110.706 124.139C108.924 125.85 107.318 127.736 105.913 129.767C105.813 129.939 105.785 130.144 105.835 130.336C105.885 130.528 106.01 130.693 106.182 130.793C106.354 130.89 106.558 130.915 106.749 130.865C106.94 130.815 107.105 130.692 107.208 130.523V130.528Z" fill="#267DFF"/>
</g>
<path d="M141 101.5C174.5 84.4998 212 99.4999 220.5 120.5" stroke="#8C979D" stroke-width="2" stroke-linecap="round" stroke-linejoin="round" stroke-dasharray="4 6"/>
<g filter="url(#filter1_d)">
<circle cx="521" cy="206" r="30" fill="#F3FBFF"/>
</g>
<g clip-path="url(#clip1)">
<path fill-rule="evenodd" clip-rule="evenodd" d="M538.463 196.7C538.271 195.05 538.358 191.796 537.082 190.884C534.224 188.85 527.995 189.408 523.871 189.261C518.632 189.074 513.086 189.482 507.929 189.629C507.799 189.638 507.677 189.697 507.59 189.794C507.502 189.89 507.454 190.017 507.457 190.147C507.46 190.278 507.513 190.402 507.605 190.495C507.697 190.587 507.821 190.641 507.952 190.644C513.179 190.572 518.518 190.247 523.816 190.521C527.467 190.71 533.834 190.323 536.215 192.084C536.788 192.507 536.8 195.747 536.914 196.874C537.425 200.906 537.461 204.984 537.022 209.024C536.95 210.368 536.727 211.699 536.357 212.993C532.591 214.905 506.756 216.279 505.231 213.827C504.666 211.796 504.348 209.705 504.281 207.599C504.077 202.144 504.374 196.682 505.168 191.282C505.239 191.198 505.276 191.09 505.273 190.98C505.27 190.87 505.227 190.765 505.152 190.685C505.077 190.605 504.975 190.555 504.865 190.544C504.756 190.534 504.646 190.564 504.557 190.629C503.921 191.213 504.038 193.073 503.929 193.734C503.076 198.781 502.817 203.911 503.158 209.018C503.22 210.888 503.527 212.742 504.073 214.532C505.325 216.65 513.55 216.726 516.05 216.747C515.047 218.035 514.57 219.655 514.717 221.28C513.563 221.355 512.479 221.466 511.481 221.517C511.362 221.52 511.248 221.57 511.166 221.656C511.083 221.742 511.038 221.858 511.041 221.977C511.044 222.097 511.093 222.21 511.18 222.293C511.266 222.375 511.381 222.42 511.501 222.417C514.463 222.522 516.806 222.815 520.571 222.789C524.195 222.771 526.66 222.449 529.67 222.222C529.805 222.215 529.931 222.155 530.021 222.055C530.111 221.955 530.157 221.823 530.15 221.688C530.143 221.554 530.083 221.428 529.983 221.338C529.883 221.248 529.751 221.201 529.616 221.208C528.743 221.234 526.736 221.174 526.858 221.174C526.651 219.512 526.126 217.905 525.311 216.441C528.719 216.259 532.108 215.818 535.45 215.123C537.626 214.577 538.016 214.017 538.3 212.408C539.177 207.213 539.232 201.912 538.463 196.7ZM525.677 221.15C521.371 221.048 519.329 221.013 515.86 221.208C516.086 220.634 516.46 219.834 516.628 219.275C516.838 218.463 516.985 217.635 517.066 216.8C517.139 216.62 517.216 216.936 524.084 216.516C524.235 218.167 524.781 219.756 525.677 221.15Z" fill="#1D1C1D" stroke="#1D1C1D" stroke-width="0.4"/>
<path fill-rule="evenodd" clip-rule="evenodd" d="M516.931 196.55C511.903 204.068 513.508 202.902 518.036 203.354C514.586 208.835 514.541 208.88 514.322 209.489C514.103 210.098 514.048 210.689 514.552 211.07C515.095 211.478 515.738 211.125 516.292 210.807C520.143 208.435 523.76 205.7 527.092 202.64C527.312 202.475 527.497 202.266 527.634 202.027C527.771 201.788 527.858 201.523 527.89 201.249C527.999 199.299 525.454 199.412 523.84 199.245C526.282 196.206 527.551 194.859 526.618 194.217C525.661 193.562 520.928 193.833 519.815 194.099L518.428 194.537C518.325 194.582 518.243 194.663 518.198 194.765C518.152 194.867 518.145 194.982 518.18 195.088C518.214 195.194 518.287 195.284 518.384 195.339C518.48 195.395 518.595 195.413 518.704 195.389L520.016 195.02C521.855 194.804 523.713 194.824 525.547 195.08C525.436 195.201 522.08 199.13 521.993 199.253C521.666 199.703 521.797 200.327 522.709 200.564C525.796 201.369 530.071 199.455 516.539 208.64C518.029 206.046 519.665 203.403 519.716 203.009C519.793 202.428 519.308 202.166 518.731 202.089C517.831 201.969 515.495 201.98 515.108 201.879C515.866 200.217 516.759 198.62 517.778 197.103C517.837 196.992 517.851 196.862 517.819 196.74C517.788 196.617 517.711 196.511 517.606 196.442C517.5 196.373 517.372 196.346 517.247 196.366C517.122 196.386 517.01 196.451 516.931 196.55Z" fill="#E12D05"/>
</g>
<path d="M523.5 245.5C526 283 516.5 303 481.5 303" stroke="#8C979D" stroke-width="2" stroke-linecap="round" stroke-linejoin="round" stroke-dasharray="4 6"/>
<g filter="url(#filter2_d)">
<circle cx="55" cy="306" r="30" fill="#F3FBFF"/>
</g>
<path d="M59.5883 291H55.468C51.2937 291 47.0815 294.189 47.0815 301.313C47.0815 305.003 48.5933 307.877 51.3646 309.511L46.2924 319.009C46.0519 319.458 46.0456 319.967 46.2755 320.371C46.5 320.765 46.9104 321 47.3731 321H49.9389C50.5218 321 50.9763 320.709 51.1943 320.198L55.9501 310.575H56.2972V319.801C56.2972 320.451 56.8275 321 57.4553 321H59.6968C60.4008 321 60.8922 320.492 60.8922 319.763V292.313C60.8923 291.54 60.3562 291 59.5883 291ZM56.2972 306.3H55.6849C53.3108 306.3 51.8935 304.296 51.8935 300.938C51.8935 296.762 53.6839 295.275 55.3596 295.275H56.2972V306.3Z" fill="#D7143A"/>
<path d="M95.5 302.5C114 302.5 125 285.5 125 249C125 212.5 137.5 200 152.5 200" stroke="#8C979D" stroke-width="2" stroke-linecap="round" stroke-linejoin="round" stroke-dasharray="4 6"/>
<g filter="url(#filter3_d)">
<circle cx="412" cy="55" r="30" fill="#F3FBFF"/>
</g>
<g clip-path="url(#clip2)">
<path d="M402.721 58.4774L401.56 62.8089L397.32 62.8986C396.052 60.5479 395.333 57.8584 395.333 55.0003C395.333 52.2366 396.005 49.6303 397.197 47.3354H397.198L400.973 48.0276L402.627 51.7805C402.281 52.7897 402.092 53.873 402.092 55.0003C402.092 56.2237 402.314 57.3959 402.721 58.4774Z" fill="#FBBB00"/>
<path d="M428.376 51.8867C428.567 52.8949 428.667 53.9361 428.667 55.0003C428.667 56.1935 428.541 57.3574 428.302 58.4801C427.491 62.3006 425.371 65.6367 422.434 67.9975L422.433 67.9966L417.678 67.754L417.005 63.5525C418.953 62.4096 420.476 60.6212 421.279 58.4801H412.366V51.8867H421.409H428.376Z" fill="#518EF8"/>
<path d="M422.433 67.9967L422.434 67.9977C419.578 70.2934 415.95 71.6671 412 71.6671C405.653 71.6671 400.135 68.1195 397.32 62.8988L402.721 58.4775C404.128 62.2339 407.752 64.9079 412 64.9079C413.826 64.9079 415.537 64.4143 417.005 63.5526L422.433 67.9967Z" fill="#28B446"/>
<path d="M422.638 42.1705L417.239 46.5908C415.72 45.6412 413.924 45.0926 412 45.0926C407.656 45.0926 403.964 47.8893 402.627 51.7804L397.198 47.3353H397.197C399.971 41.9873 405.558 38.3335 412 38.3335C416.044 38.3335 419.752 39.774 422.638 42.1705Z" fill="#F14336"/>
</g>
<path d="M413.5 91.5C413.5 108 394.5 105.5 377 105.5C362.263 105.5 331 106.5 331 122" stroke="#8C979D" stroke-width="2" stroke-linecap="round" stroke-linejoin="round" stroke-dasharray="4 6"/>
<defs>
<filter id="filter0_d" x="51" y="66" width="110" height="110" filterUnits="userSpaceOnUse" color-interpolation-filters="sRGB">
<feFlood flood-opacity="0" result="BackgroundImageFix"/>
<feColorMatrix in="SourceAlpha" type="matrix" values="0 0 0 0 0 0 0 0 0 0 0 0 0 0 0 0 0 0 127 0" result="hardAlpha"/>
<feOffset/>
<feGaussianBlur stdDeviation="12.5"/>
<feColorMatrix type="matrix" values="0 0 0 0 0.894444 0 0 0 0 0.934671 0 0 0 0 0.958333 0 0 0 1 0"/>
<feBlend mode="normal" in2="BackgroundImageFix" result="effect1_dropShadow"/>
<feBlend mode="normal" in="SourceGraphic" in2="effect1_dropShadow" result="shape"/>
</filter>
<filter id="filter1_d" x="466" y="151" width="110" height="110" filterUnits="userSpaceOnUse" color-interpolation-filters="sRGB">
<feFlood flood-opacity="0" result="BackgroundImageFix"/>
<feColorMatrix in="SourceAlpha" type="matrix" values="0 0 0 0 0 0 0 0 0 0 0 0 0 0 0 0 0 0 127 0" result="hardAlpha"/>
<feOffset/>
<feGaussianBlur stdDeviation="12.5"/>
<feColorMatrix type="matrix" values="0 0 0 0 0.894444 0 0 0 0 0.934671 0 0 0 0 0.958333 0 0 0 1 0"/>
<feBlend mode="normal" in2="BackgroundImageFix" result="effect1_dropShadow"/>
<feBlend mode="normal" in="SourceGraphic" in2="effect1_dropShadow" result="shape"/>
</filter>
<filter id="filter2_d" x="0" y="251" width="110" height="110" filterUnits="userSpaceOnUse" color-interpolation-filters="sRGB">
<feFlood flood-opacity="0" result="BackgroundImageFix"/>
<feColorMatrix in="SourceAlpha" type="matrix" values="0 0 0 0 0 0 0 0 0 0 0 0 0 0 0 0 0 0 127 0" result="hardAlpha"/>
<feOffset/>
<feGaussianBlur stdDeviation="12.5"/>
<feColorMatrix type="matrix" values="0 0 0 0 0.894444 0 0 0 0 0.934671 0 0 0 0 0.958333 0 0 0 1 0"/>
<feBlend mode="normal" in2="BackgroundImageFix" result="effect1_dropShadow"/>
<feBlend mode="normal" in="SourceGraphic" in2="effect1_dropShadow" result="shape"/>
</filter>
<filter id="filter3_d" x="357" y="0" width="110" height="110" filterUnits="userSpaceOnUse" color-interpolation-filters="sRGB">
<feFlood flood-opacity="0" result="BackgroundImageFix"/>
<feColorMatrix in="SourceAlpha" type="matrix" values="0 0 0 0 0 0 0 0 0 0 0 0 0 0 0 0 0 0 127 0" result="hardAlpha"/>
<feOffset/>
<feGaussianBlur stdDeviation="12.5"/>
<feColorMatrix type="matrix" values="0 0 0 0 0.894444 0 0 0 0 0.934671 0 0 0 0 0.958333 0 0 0 1 0"/>
<feBlend mode="normal" in2="BackgroundImageFix" result="effect1_dropShadow"/>
<feBlend mode="normal" in="SourceGraphic" in2="effect1_dropShadow" result="shape"/>
</filter>
<clipPath id="clip0">
<rect width="36" height="36" fill="white" transform="translate(88 103)"/>
</clipPath>
<clipPath id="clip1">
<rect width="36" height="36" fill="white" transform="translate(503 188)"/>
</clipPath>
<clipPath id="clip2">
<rect width="33.3333" height="33.3333" fill="white" transform="translate(395.333 38.3335)"/>
</clipPath>
</defs>
</svg>
